<mxfile host="app.diagrams.net" modified="2023-04-11T08:09:04.635Z" agent="Mozilla/5.0 (Macintosh; Intel Mac OS X 10_15_7) AppleWebKit/537.36 (KHTML, like Gecko) Chrome/112.0.0.0 Safari/537.36" etag="aeBKGuB-JShQh6SbYV0F" version="21.1.4" type="github">
  <diagram name="第 1 页" id="0jJtAeKh6F2pnRWyd7BW">
    <mxGraphModel dx="1781" dy="591" grid="1" gridSize="10" guides="1" tooltips="1" connect="1" arrows="1" fold="1" page="1" pageScale="1" pageWidth="827" pageHeight="1169" math="0" shadow="0">
      <root>
        <mxCell id="0" />
        <mxCell id="1" parent="0" />
        <mxCell id="DMLcDICv1TklfwuALCX9-1" value="文件1" style="ellipse;whiteSpace=wrap;html=1;aspect=fixed;fillColor=#ffe6cc;strokeColor=#d79b00;fontSize=16;perimeterSpacing=1;" vertex="1" parent="1">
          <mxGeometry x="50" y="340" width="55" height="55" as="geometry" />
        </mxCell>
        <mxCell id="DMLcDICv1TklfwuALCX9-5" style="rounded=0;orthogonalLoop=1;jettySize=auto;html=1;entryX=0.5;entryY=1;entryDx=0;entryDy=0;fontSize=16;" edge="1" parent="1" source="DMLcDICv1TklfwuALCX9-2" target="DMLcDICv1TklfwuALCX9-1">
          <mxGeometry relative="1" as="geometry" />
        </mxCell>
        <mxCell id="DMLcDICv1TklfwuALCX9-6" style="rounded=0;orthogonalLoop=1;jettySize=auto;html=1;fontSize=16;" edge="1" parent="1" source="DMLcDICv1TklfwuALCX9-2" target="DMLcDICv1TklfwuALCX9-3">
          <mxGeometry relative="1" as="geometry" />
        </mxCell>
        <mxCell id="DMLcDICv1TklfwuALCX9-2" value="路径2" style="ellipse;whiteSpace=wrap;html=1;aspect=fixed;fillColor=#f5f5f5;fontColor=#333333;strokeColor=#666666;fontSize=16;perimeterSpacing=1;" vertex="1" parent="1">
          <mxGeometry x="190" y="490" width="55" height="55" as="geometry" />
        </mxCell>
        <mxCell id="DMLcDICv1TklfwuALCX9-3" value="文件2" style="ellipse;whiteSpace=wrap;html=1;aspect=fixed;fillColor=#ffe6cc;strokeColor=#d79b00;fontSize=16;perimeterSpacing=1;" vertex="1" parent="1">
          <mxGeometry x="190" y="370" width="55" height="55" as="geometry" />
        </mxCell>
        <mxCell id="DMLcDICv1TklfwuALCX9-7" style="rounded=0;orthogonalLoop=1;jettySize=auto;html=1;entryX=0;entryY=0.5;entryDx=0;entryDy=0;fontSize=16;" edge="1" parent="1" source="DMLcDICv1TklfwuALCX9-4" target="DMLcDICv1TklfwuALCX9-2">
          <mxGeometry relative="1" as="geometry" />
        </mxCell>
        <mxCell id="DMLcDICv1TklfwuALCX9-4" value="用户2" style="ellipse;whiteSpace=wrap;html=1;aspect=fixed;fillColor=#dae8fc;strokeColor=#6c8ebf;fontSize=16;perimeterSpacing=1;" vertex="1" parent="1">
          <mxGeometry x="70" y="480" width="55" height="55" as="geometry" />
        </mxCell>
        <mxCell id="DMLcDICv1TklfwuALCX9-9" style="rounded=0;orthogonalLoop=1;jettySize=auto;html=1;entryX=0.413;entryY=0.975;entryDx=0;entryDy=0;entryPerimeter=0;fontSize=16;" edge="1" parent="1" source="DMLcDICv1TklfwuALCX9-8" target="DMLcDICv1TklfwuALCX9-10">
          <mxGeometry relative="1" as="geometry" />
        </mxCell>
        <mxCell id="DMLcDICv1TklfwuALCX9-8" value="用户1" style="ellipse;whiteSpace=wrap;html=1;aspect=fixed;fillColor=#dae8fc;strokeColor=#6c8ebf;fontSize=16;perimeterSpacing=1;" vertex="1" parent="1">
          <mxGeometry x="20" y="560" width="55" height="55" as="geometry" />
        </mxCell>
        <mxCell id="DMLcDICv1TklfwuALCX9-11" style="rounded=0;orthogonalLoop=1;jettySize=auto;html=1;entryX=0.025;entryY=0.788;entryDx=0;entryDy=0;entryPerimeter=0;fontSize=16;" edge="1" parent="1" source="DMLcDICv1TklfwuALCX9-10" target="DMLcDICv1TklfwuALCX9-1">
          <mxGeometry relative="1" as="geometry" />
        </mxCell>
        <mxCell id="DMLcDICv1TklfwuALCX9-10" value="路径1" style="ellipse;whiteSpace=wrap;html=1;aspect=fixed;fillColor=#f5f5f5;fontColor=#333333;strokeColor=#666666;fontSize=16;perimeterSpacing=1;" vertex="1" parent="1">
          <mxGeometry x="-60" y="440" width="55" height="55" as="geometry" />
        </mxCell>
        <mxCell id="DMLcDICv1TklfwuALCX9-16" style="edgeStyle=orthogonalEdgeStyle;rounded=0;orthogonalLoop=1;jettySize=auto;html=1;" edge="1" parent="1" source="DMLcDICv1TklfwuALCX9-12" target="DMLcDICv1TklfwuALCX9-15">
          <mxGeometry relative="1" as="geometry" />
        </mxCell>
        <mxCell id="DMLcDICv1TklfwuALCX9-12" value="Sampling" style="rounded=1;whiteSpace=wrap;html=1;fontSize=16;" vertex="1" parent="1">
          <mxGeometry x="354" y="455" width="120" height="60" as="geometry" />
        </mxCell>
        <mxCell id="DMLcDICv1TklfwuALCX9-14" style="edgeStyle=orthogonalEdgeStyle;rounded=0;orthogonalLoop=1;jettySize=auto;html=1;" edge="1" parent="1" source="DMLcDICv1TklfwuALCX9-13" target="DMLcDICv1TklfwuALCX9-12">
          <mxGeometry relative="1" as="geometry" />
        </mxCell>
        <mxCell id="DMLcDICv1TklfwuALCX9-13" value="" style="swimlane;startSize=0;" vertex="1" parent="1">
          <mxGeometry x="-77.5" y="330" width="350" height="310" as="geometry" />
        </mxCell>
        <mxCell id="DMLcDICv1TklfwuALCX9-19" value="" style="edgeStyle=orthogonalEdgeStyle;rounded=0;orthogonalLoop=1;jettySize=auto;html=1;" edge="1" parent="1" source="DMLcDICv1TklfwuALCX9-15" target="DMLcDICv1TklfwuALCX9-17">
          <mxGeometry relative="1" as="geometry" />
        </mxCell>
        <mxCell id="DMLcDICv1TklfwuALCX9-15" value="GNN" style="rounded=1;whiteSpace=wrap;html=1;fontSize=16;" vertex="1" parent="1">
          <mxGeometry x="520" y="455" width="120" height="60" as="geometry" />
        </mxCell>
        <mxCell id="DMLcDICv1TklfwuALCX9-20" value="" style="edgeStyle=orthogonalEdgeStyle;rounded=0;orthogonalLoop=1;jettySize=auto;html=1;" edge="1" parent="1" source="DMLcDICv1TklfwuALCX9-17" target="DMLcDICv1TklfwuALCX9-18">
          <mxGeometry relative="1" as="geometry" />
        </mxCell>
        <mxCell id="DMLcDICv1TklfwuALCX9-17" value="NodeDecoding" style="rounded=1;whiteSpace=wrap;html=1;fontSize=16;" vertex="1" parent="1">
          <mxGeometry x="680" y="455" width="120" height="60" as="geometry" />
        </mxCell>
        <mxCell id="DMLcDICv1TklfwuALCX9-18" value="classfication" style="rounded=1;whiteSpace=wrap;html=1;fontSize=16;" vertex="1" parent="1">
          <mxGeometry x="680" y="350" width="120" height="60" as="geometry" />
        </mxCell>
        <mxCell id="DMLcDICv1TklfwuALCX9-21" value="&lt;font style=&quot;font-size: 14px;&quot;&gt;用户-路径&lt;br&gt;路径-路径&lt;br&gt;路径-文件&lt;/font&gt;" style="rounded=1;whiteSpace=wrap;html=1;" vertex="1" parent="1">
          <mxGeometry x="350" y="370" width="120" height="60" as="geometry" />
        </mxCell>
      </root>
    </mxGraphModel>
  </diagram>
</mxfile>
